<svg xmlns="http://www.w3.org/2000/svg" width="140" height="65" viewBox="0 0 386 246" fill="none">
<path fill-rule="evenodd" clip-rule="evenodd" d="M176.144 40.0414C167.843 52.9892 168.594 67.4076 174.61 81.1219C174.767 81.4819 174.712 81.8078 174.446 82.0997C174.342 82.2144 174.253 82.2537 174.18 82.2172C163.032 76.8426 155.756 63.887 154.019 52.324C152.914 44.944 153.584 37.7778 156.03 30.8256C161.882 14.2166 175.275 3.02922 192.8 0.142319C197.196 -0.577381 200.779 1.5115 203.971 4.6252C207.883 8.443 212.942 12.5971 219.149 17.0878C219.665 17.4634 220.059 17.9613 220.33 18.5821C220.46 18.8689 220.366 19.0045 220.048 18.9889C201.476 17.8466 186.267 24.254 176.144 40.0414Z" fill="#EB1F24"/>
<path fill-rule="evenodd" clip-rule="evenodd" d="M224.586 30.5436C240.358 34.6588 252.343 46.6284 256.983 62.1344C258.399 66.8675 259.111 71.7101 255.621 75.6375C249.9 82.0682 244.622 88.3426 239.787 94.4605C239.333 95.0342 239.143 94.9561 239.216 94.2258C240.306 83.3618 238.167 73.6999 232.8 65.2404C221.011 46.6521 198.339 40.7298 178.374 49.0616C177.205 49.5466 176.976 49.265 177.685 48.2167C188.121 32.8515 206.843 25.9122 224.586 30.5436Z" fill="#A4027C"/>
<path fill-rule="evenodd" clip-rule="evenodd" d="M146.774 55.9306C148.042 67.1414 155.083 77.2022 164.174 83.9929C169.457 87.9412 175.403 90.3351 182.011 91.1747C190.241 92.218 198.226 90.9427 205.966 87.349C206.05 87.3108 206.142 87.291 206.235 87.291C206.593 87.291 206.884 87.5819 206.884 87.9403C206.884 87.9598 206.883 87.9792 206.882 87.9984C206.84 88.4 206.723 88.7754 206.53 89.125C202.571 96.2756 195.256 101.306 187.832 104.631C183.566 106.54 178.496 107.484 172.623 107.463C159.595 107.421 148.697 102.821 139.93 93.6626C132.975 86.3948 128.382 77.0379 127.24 67.0866C126.739 62.6979 129 60.6714 131.426 57.5733C132.14 56.6659 132.904 55.7766 133.718 54.9057C135.251 53.268 136.777 51.3877 138.294 49.2651C140.162 46.6469 142.368 44.1225 144.913 41.6921C145.627 41.0037 145.985 41.1573 145.985 42.1535C145.974 46.5659 146.237 51.1583 146.774 55.9306Z" fill="#FCD228"/>
<path fill-rule="evenodd" clip-rule="evenodd" d="M228.122 72.5319C233.16 83.2109 233.387 96.315 228.795 107.002C222.137 122.484 207.977 133.108 191.001 134.775C189.076 134.962 187.644 134.602 186.142 133.39C178.997 127.658 171.966 121.978 165.051 116.351C164.857 116.194 164.73 115.98 164.667 115.709C164.664 115.691 164.662 115.672 164.662 115.654C164.662 115.495 164.79 115.366 164.949 115.365C168.97 115.31 172.991 115.779 176.903 115.506C192.119 114.442 205.278 105.038 211.56 91.1046C216.731 79.6434 215.276 66.4609 210.402 55.1719C209.761 53.6855 210.134 53.3621 211.521 54.2017C218.953 58.7185 224.487 64.8285 228.122 72.5319Z" fill="#0098d1"/>
<path fill-rule="evenodd" clip-rule="evenodd" d="M167.608 155.741C167.286 155.637 167.067 155.336 167.067 154.997C167.067 154.704 167.231 154.436 167.491 154.301C168.065 153.999 168.693 153.762 169.376 153.59C174.258 152.38 178.887 151.29 183.263 150.319C183.335 150.303 183.408 150.295 183.482 150.295C184.035 150.295 184.483 150.743 184.483 151.296C184.483 151.299 184.483 151.302 184.483 151.305C184.327 162.373 184.22 173.66 184.162 185.165C184.147 188.036 184.382 191.064 184.303 193.959C184.173 198.465 184.162 203.242 184.272 208.291C184.324 210.628 185.401 212.072 187.503 212.625C188.325 212.836 188.856 213.493 188.559 214.362C188.485 214.59 188.27 214.744 188.027 214.745L168.007 214.761C167.577 214.761 167.214 214.443 167.155 214.018L167.107 213.642C167.103 213.607 167.1 213.572 167.1 213.537C167.1 213.137 167.405 212.802 167.804 212.766C170.365 212.515 171.653 210.755 171.668 207.485C171.747 193.356 171.768 178.833 171.731 163.917C171.726 162.311 171.663 160.715 171.543 159.129C171.434 157.716 170.122 156.586 167.608 155.741Z" fill="#ffffff"/>
<path fill-rule="evenodd" clip-rule="evenodd" d="M24.0497 192.926C15.5379 188.631 3.34125 184.829 1.31515 173.977C-1.04775 161.28 7.28424 153.997 19.0506 152.635C26.0028 151.827 32.6422 153.149 38.9688 156.602C39.2347 156.743 39.3887 156.964 39.4303 157.267C39.5919 158.373 39.6051 159.622 39.4695 161.014C39.2452 163.356 39.0938 165.607 39.0157 167.766C39.0026 168.206 38.6515 168.573 38.2052 168.602C37.0443 168.658 35.9569 167.985 35.4717 166.921C34.3868 164.553 33.2343 162.237 32.0138 159.974C29.7841 155.859 26.7487 154.943 22.305 155.295C9.47475 156.32 8.58294 170.434 19.0191 175.636C24.4095 178.319 30.2849 180.666 35.1901 184.109C39.18 186.91 41.8242 191.197 42.192 195.985C43.0603 207.43 35.4873 214.596 24.652 215.95C16.2653 217.003 8.16295 215.739 0.344948 212.155C0.104948 212.041 -0.00975157 211.853 0.00064843 211.592L0.56395 199.677C0.57435 199.385 0.715243 199.187 0.986443 199.083C2.43374 198.527 3.58375 199.482 4.06895 200.788C5.50825 204.723 8.05084 210.802 12.0722 212.289C16.4531 213.911 20.5813 213.971 24.4565 212.468C29.127 210.653 31.4974 205.952 30.4805 200.999C29.7503 197.411 27.6068 194.72 24.0497 192.926Z" fill="#ffffff"/>
<path fill-rule="evenodd" clip-rule="evenodd" d="M64.9734 170.637L74.51 170.668C74.7865 170.668 74.93 170.806 74.9403 171.083L75.0187 172.851C75.0343 173.273 74.8309 173.487 74.4084 173.492L64.9265 173.508C64.6415 173.508 64.4105 173.742 64.4105 174.032C64.4519 182.481 64.4544 192.177 64.4175 203.119C64.4125 204.767 64.6158 206.421 65.0277 208.079C65.8101 211.201 69.5419 212.194 72.0923 210.739C73.0937 210.165 74.1419 209.487 75.2373 208.705C75.371 208.61 75.5311 208.558 75.6953 208.558C76.1004 208.558 76.4401 208.865 76.4813 209.268C76.5438 209.894 76.3535 210.455 75.9101 210.95C72.1601 215.175 67.2131 216.773 61.069 215.746C55.0295 214.745 52.0201 211.115 52.041 204.856C52.067 194.753 52.0748 184.494 52.0645 174.079C52.0645 173.688 51.8714 173.492 51.4855 173.492L46.0248 173.445C45.6602 173.441 45.3662 173.145 45.3662 172.78C45.3662 172.764 45.3668 172.748 45.3682 172.733C45.3839 172.472 45.4464 172.219 45.5558 171.974C45.7337 171.565 46.1316 171.28 46.59 171.239C50.3233 170.963 53.1861 169.583 55.1786 167.1C57.2544 164.513 59.3092 161.705 61.3434 158.675C62.0083 157.681 63.2992 157.533 64.3553 157.83C64.6422 157.913 64.7803 158.103 64.77 158.401L64.4413 170.089C64.4415 170.094 64.4413 170.099 64.4413 170.104C64.4413 170.398 64.6796 170.637 64.9734 170.637Z" fill="#ffffff"/>
<path fill-rule="evenodd" clip-rule="evenodd" d="M359.922 173.523C358.287 173.398 355.596 173.891 354.234 173.062C354.131 172.998 354.04 172.91 353.97 172.807C353.7 172.406 353.803 171.863 354.2 171.595C354.304 171.525 354.421 171.479 354.544 171.459C357.88 170.926 361.299 170.003 363.489 167.351C365.523 164.879 367.51 162.216 369.451 159.363C370.103 158.409 370.934 157.832 371.946 157.634C372.018 157.62 372.092 157.613 372.166 157.613C372.792 157.613 373.3 158.121 373.3 158.747C373.3 158.757 373.3 158.767 373.3 158.776L373.034 169.847C373.023 170.42 373.305 170.71 373.879 170.715L382.563 170.746C383.108 170.751 383.569 171.149 383.65 171.685L383.767 172.436C383.882 173.135 383.582 173.484 382.868 173.484L373.417 173.461C373.036 173.456 372.849 173.646 372.854 174.032C372.896 183.629 372.916 193.113 372.916 202.486C372.916 206.499 373.519 212.171 379.089 211.31C380.873 211.037 382.257 209.62 383.775 208.697C383.903 208.618 384.049 208.577 384.199 208.577C384.496 208.577 384.769 208.74 384.91 209.002C385.139 209.435 385.126 209.847 384.87 210.239C381.045 216.176 373.448 217.1 367.01 215.073C361.025 213.188 360.548 207.391 360.579 201.954C360.626 192.3 360.657 183.097 360.673 174.345C360.673 173.839 360.423 173.565 359.922 173.523Z" fill="#ffffff"/>
<path fill-rule="evenodd" clip-rule="evenodd" d="M105.905 209.378C104.94 210.463 103.874 211.503 102.706 212.499C94.6474 219.407 79.4075 215.965 80.808 203.385C81.5825 196.391 90.368 192.534 96.3921 191.313C99.5371 190.672 102.661 190.101 105.764 189.6C105.942 189.574 106.076 189.427 106.086 189.248C106.331 185.342 106.205 181.519 105.71 177.779C105.183 173.847 102.943 171.972 98.9894 172.154C97.6046 172.225 96.1182 172.741 95.4845 174.071C93.4349 178.366 94.3971 186.917 86.8711 185.696C84.112 185.248 82.7456 183.55 82.7716 180.603C82.8263 175.956 86.0106 173.03 90.2821 171.325C95.1795 169.369 100.296 168.811 105.631 169.651C114.237 171.004 117.961 176.707 118.086 185.055C118.206 192.57 118.222 199.825 118.133 206.819C118.086 210.371 121.02 210.535 123.664 210.528C124.204 210.528 124.641 210.966 124.641 211.505C124.641 211.697 124.584 211.885 124.478 212.045C122.107 215.558 117.546 216.489 113.423 215.715C109.976 215.068 107.679 213 106.531 209.511C106.396 209.104 106.187 209.06 105.905 209.378ZM106.179 192.456C106.174 192.158 106.025 192.023 105.733 192.049C98.0742 192.784 91.0564 196.242 92.7934 205.529C93.2471 207.964 94.637 209.432 96.9631 209.933C99.5709 210.502 102.299 209.657 105.146 207.398C106.203 206.561 106.132 205.403 106.148 204.206C106.189 200.509 106.2 196.592 106.179 192.456Z" fill="#ffffff"/>
<path fill-rule="evenodd" clip-rule="evenodd" d="M144.435 178.225C147.204 173.688 151.038 170.386 156.233 169.455C161.975 168.422 165.362 173.68 163.375 178.742C161.818 182.708 157.007 182.802 153.854 180.658C152.691 179.871 151.575 178.971 150.506 177.959C149.812 177.326 148.785 177.307 148.093 177.897C145.409 180.098 144.065 182.888 144.059 186.268C144.054 192.704 144.054 198.907 144.059 204.879C144.059 206.282 144.146 207.685 144.318 209.088C144.662 211.881 147.259 212.319 149.458 212.922C149.823 213.021 150.094 213.329 150.146 213.704C150.24 214.424 149.977 214.781 149.356 214.776C141.804 214.75 134.653 214.745 127.904 214.76C127.576 214.76 127.302 214.635 127.083 214.385C126.96 214.247 126.891 214.068 126.891 213.884C126.891 213.611 127.04 213.359 127.278 213.226L130.4 211.521C130.63 211.393 130.821 211.195 130.945 210.957C131.421 209.998 131.662 208.973 131.667 207.884C131.688 198.683 131.68 189.666 131.644 180.83C131.639 179.792 131.352 178.864 130.783 178.045C129.915 176.794 128.186 176.872 127.044 175.761C126.903 175.625 126.823 175.437 126.823 175.242C126.823 174.937 127.015 174.666 127.302 174.564L141.313 169.494C142.398 169.103 143.009 169.479 143.144 170.621L144.059 178.139C144.106 178.53 144.232 178.559 144.435 178.225Z" fill="#ffffff"/>
<path fill-rule="evenodd" clip-rule="evenodd" d="M295.066 209.659C295.057 209.628 295.041 209.592 295.02 209.559C294.892 209.354 294.619 209.293 294.41 209.424C294.377 209.444 294.347 209.469 294.32 209.498C289.887 214.361 284.896 217.201 277.972 215.535C272.433 214.21 269.468 210.789 269.077 205.271C268.921 203.08 269.549 200.996 270.963 199.02C275.993 191.963 286.476 190.969 294.128 189.577C294.324 189.54 294.468 189.37 294.472 189.17C294.581 186.265 294.589 183.386 294.495 180.533C294.354 176.089 292.774 171.599 287.313 172.092C283.167 172.467 282.815 177.114 282.236 180.314C281.501 184.367 278.637 186.862 274.264 185.376C271.948 184.588 270.942 182.817 271.244 180.064C271.646 176.361 273.677 173.643 277.339 171.912C283.138 169.179 289.34 168.566 295.942 170.073C303.054 171.701 306.246 177.325 306.449 184.241C306.616 189.843 306.647 196.558 306.543 204.386C306.528 205.471 306.65 206.78 306.911 208.314C307.153 209.73 308.147 210.16 309.422 210.324C310.622 210.481 311.79 210.63 312.927 210.77C313.185 210.802 313.38 211.022 313.38 211.282C313.38 211.397 313.342 211.509 313.271 211.599C310.356 215.276 306.653 216.664 302.162 215.762C298.511 215.031 296.146 212.997 295.066 209.659ZM289.387 209.683C290.623 209.297 291.88 208.648 293.157 207.735C294.143 207.031 294.626 206.089 294.605 204.911C294.527 200.41 294.488 196.159 294.488 192.158C294.493 191.903 294.373 191.807 294.128 191.869C292.813 192.208 291.457 192.518 290.059 192.8C285.35 193.747 281.728 196.407 280.984 201.414C280.147 207.023 283.316 211.56 289.387 209.683Z" fill="#ffffff"/>
<path fill-rule="evenodd" clip-rule="evenodd" d="M334.05 198.981C328.597 197.189 322.425 195.523 318.842 190.931C315.947 187.214 315.9 181.378 318.208 177.318C322.659 169.51 333.096 168.008 341.13 170.16C343.196 170.712 345.308 171.461 347.467 172.405C347.665 172.488 347.757 172.637 347.741 172.851L347.209 181.683C347.208 181.708 347.205 181.738 347.201 181.768C347.122 182.329 346.6 182.719 346.036 182.64C346.006 182.636 345.977 182.63 345.947 182.623C345.13 182.429 344.51 181.936 344.088 181.144C342.982 179.078 341.866 177.089 340.739 175.174C337.767 170.136 328.081 171.388 326.392 176.833C324.842 181.824 329.685 184.633 333.573 185.853C340.967 188.169 349.408 190.274 351.004 198.934C352.475 206.875 347.366 213.078 339.793 215.05C331.928 217.1 324.311 216.265 316.941 212.547C316.738 212.442 316.638 212.278 316.644 212.054L316.73 202.431C316.728 201.919 317.129 201.487 317.644 201.453C318.182 201.427 318.686 201.539 319.155 201.789C319.433 201.931 319.652 202.167 319.773 202.454C321.139 205.558 322.649 208.137 324.303 210.192C327.51 214.182 334.09 214.369 338.377 211.561C341.608 209.433 341.937 204.418 339.105 201.852C337.712 200.59 336.027 199.633 334.05 198.981Z" fill="#ffffff"/>
<path fill-rule="evenodd" clip-rule="evenodd" d="M201.757 173.304C200.693 173.091 199.765 172.632 198.972 171.928C198.957 171.914 198.944 171.901 198.931 171.887C198.747 171.682 198.766 171.363 198.974 171.175C198.987 171.164 198.999 171.154 199.012 171.144C199.33 170.91 199.692 170.79 200.098 170.785C204.297 170.712 208.475 170.676 212.631 170.676C212.918 170.678 213.156 170.89 213.187 171.169C213.281 171.998 212.913 172.496 212.084 172.663C209.382 173.205 206.973 174.483 204.855 176.496C201.606 179.584 198.221 182.765 194.7 186.041C194.393 186.326 194.34 186.797 194.58 187.139C198.488 192.655 202.351 197.992 206.169 203.15C209.823 208.087 211.685 210.935 216.176 213.203C216.209 213.221 216.241 213.24 216.271 213.26C216.632 213.513 216.718 214.014 216.462 214.378C216.441 214.408 216.418 214.437 216.393 214.464C216.128 214.745 215.795 214.88 215.393 214.87C210.965 214.771 206.475 214.74 201.921 214.776C201.298 214.789 200.682 214.487 200.293 213.966L185.023 192.894C184.517 192.195 184.577 191.549 185.203 190.954C189.839 186.562 194.859 181.902 200.263 176.974C201.207 176.113 201.835 175.099 202.148 173.93C202.237 173.586 202.106 173.377 201.757 173.304Z" fill="#ffffff"/>
<path fill-rule="evenodd" clip-rule="evenodd" d="M247.633 201.242C250.21 193.371 252.94 185.478 255.824 177.56C256.116 176.747 256.252 175.602 256.231 174.126C256.231 173.844 256.095 173.659 255.824 173.57L252.46 172.444C252.298 172.389 252.152 172.288 252.039 172.156C251.631 171.638 251.605 171.205 251.96 170.856C252.126 170.684 252.385 170.595 252.734 170.59C256.74 170.527 260.902 170.543 265.22 170.637C265.456 170.642 265.675 170.745 265.824 170.92C266.168 171.305 266.198 171.669 265.916 172.014C265.765 172.186 265.577 172.308 265.353 172.381C264.503 172.637 263.642 172.869 262.771 173.078C260.417 173.641 259.337 176.176 258.562 178.343C254.322 190.14 250.082 201.938 245.842 213.736C245.239 215.418 242.446 215.253 240.741 215.05C240.475 215.019 240.256 214.904 240.084 214.706C239.776 214.372 239.51 213.926 239.286 213.368C237.356 208.632 232.479 196.876 224.656 178.1C223.295 174.835 221.501 172.973 219.274 172.514C218.882 172.436 218.569 172.191 218.335 171.779C218.204 171.56 218.194 171.341 218.304 171.122C218.422 170.888 218.652 170.737 218.909 170.723C219.955 170.65 220.995 170.618 222.027 170.629C227.978 170.686 233.588 170.678 238.855 170.605C239.388 170.595 239.901 170.645 240.397 170.754C242.347 171.171 242.399 171.755 240.553 172.506C239.719 172.845 238.869 173.153 238.003 173.43C237.719 173.518 237.5 173.745 237.423 174.033C237.121 175.102 237.158 176.137 237.533 177.138C240.558 185.139 243.622 193.181 246.726 201.265C247.049 202.11 247.352 202.102 247.633 201.242Z" fill="#ffffff"/>
<path fill-rule="evenodd" clip-rule="evenodd" d="M94.5724 243.863C94.5724 244.144 94.5624 244.387 94.5384 244.581C94.5143 244.775 94.4755 244.935 94.4318 245.061C94.3834 245.191 94.3253 245.283 94.2524 245.337C94.1798 245.395 94.0974 245.424 94.0052 245.424H85.5858C85.2757 245.424 85.0137 245.332 84.8006 245.148C84.5871 244.964 84.4805 244.663 84.4805 244.246V227.553C84.4805 227.461 84.5097 227.373 84.5727 227.296C84.6356 227.223 84.7376 227.16 84.878 227.111C85.0186 227.063 85.2124 227.029 85.4548 227C85.6972 226.971 85.9976 226.956 86.3565 226.956C86.7247 226.956 87.0303 226.971 87.2678 227C87.5003 227.029 87.6942 227.063 87.8348 227.111C87.9754 227.16 88.0771 227.223 88.1403 227.296C88.2033 227.373 88.2322 227.461 88.2322 227.553V242.341H94.0052C94.0974 242.341 94.1847 242.365 94.2524 242.419C94.3253 242.472 94.3834 242.555 94.4318 242.676C94.4803 242.792 94.5143 242.947 94.5384 243.146C94.5628 243.34 94.5724 243.577 94.5724 243.863ZM104.802 244.915C104.802 245.007 104.773 245.094 104.71 245.172C104.647 245.245 104.545 245.308 104.404 245.356C104.264 245.4 104.07 245.439 103.837 245.468C103.6 245.497 103.294 245.511 102.926 245.511C102.567 245.511 102.267 245.497 102.024 245.468C101.782 245.439 101.588 245.4 101.448 245.356C101.307 245.308 101.205 245.245 101.142 245.172C101.079 245.094 101.05 245.007 101.05 244.915V227.553C101.05 227.461 101.079 227.373 101.142 227.296C101.205 227.223 101.307 227.16 101.457 227.111C101.603 227.063 101.792 227.029 102.029 227C102.267 226.971 102.567 226.956 102.926 226.956C103.294 226.956 103.6 226.971 103.837 227C104.07 227.029 104.264 227.063 104.404 227.111C104.545 227.16 104.647 227.223 104.71 227.296C104.773 227.373 104.802 227.461 104.802 227.553V244.915ZM123.402 228.575C123.402 228.861 123.392 229.099 123.368 229.293C123.344 229.487 123.305 229.642 123.252 229.758C123.199 229.87 123.141 229.957 123.078 230.01C123.01 230.068 122.932 230.097 122.85 230.097H116.829V235.042H122.477C122.564 235.042 122.641 235.066 122.704 235.114C122.772 235.158 122.83 235.24 122.884 235.352C122.937 235.468 122.971 235.618 122.995 235.807C123.019 235.996 123.034 236.234 123.034 236.52C123.034 236.801 123.019 237.039 122.995 237.227C122.971 237.416 122.937 237.572 122.884 237.698C122.83 237.819 122.772 237.906 122.704 237.96C122.641 238.013 122.564 238.037 122.477 238.037H116.829V244.886C116.829 244.988 116.801 245.08 116.742 245.158C116.689 245.23 116.587 245.293 116.437 245.346C116.291 245.4 116.098 245.439 115.865 245.468C115.628 245.497 115.322 245.511 114.954 245.511C114.595 245.511 114.294 245.497 114.052 245.468C113.81 245.439 113.616 245.4 113.475 245.346C113.335 245.298 113.233 245.23 113.17 245.158C113.107 245.08 113.078 244.988 113.078 244.886V228.221C113.078 227.805 113.184 227.504 113.398 227.32C113.611 227.136 113.873 227.044 114.188 227.044H122.85C122.932 227.044 123.01 227.068 123.078 227.121C123.141 227.175 123.199 227.257 123.252 227.378C123.305 227.494 123.344 227.655 123.368 227.853C123.393 228.052 123.402 228.294 123.402 228.575ZM141.576 243.955C141.576 244.231 141.566 244.459 141.542 244.648C141.518 244.833 141.484 244.983 141.436 245.094C141.387 245.211 141.329 245.293 141.256 245.346C141.188 245.4 141.106 245.424 141.024 245.424H131.804C131.494 245.424 131.232 245.332 131.019 245.148C130.806 244.964 130.699 244.663 130.699 244.246V228.221C130.699 227.805 130.806 227.504 131.019 227.32C131.232 227.136 131.494 227.044 131.804 227.044H140.98C141.062 227.044 141.14 227.068 141.208 227.117C141.271 227.165 141.329 227.247 141.377 227.364C141.421 227.485 141.46 227.635 141.484 227.819C141.508 228.008 141.518 228.241 141.518 228.527C141.518 228.793 141.508 229.017 141.484 229.206C141.46 229.39 141.426 229.54 141.377 229.651C141.329 229.768 141.271 229.85 141.208 229.904C141.14 229.957 141.062 229.981 140.98 229.981H134.422V234.46H139.947C140.035 234.46 140.112 234.484 140.18 234.537C140.253 234.591 140.311 234.668 140.36 234.78C140.408 234.886 140.442 235.032 140.466 235.221C140.491 235.405 140.5 235.628 140.5 235.89C140.5 236.166 140.49 236.394 140.466 236.573C140.442 236.753 140.408 236.898 140.36 237.005C140.311 237.116 140.253 237.194 140.18 237.237C140.112 237.286 140.035 237.31 139.947 237.31H134.422V242.487H141.024C141.111 242.487 141.188 242.511 141.256 242.564C141.329 242.617 141.387 242.7 141.436 242.816C141.484 242.928 141.518 243.078 141.542 243.262C141.567 243.451 141.576 243.679 141.576 243.955ZM170.911 239.908C170.911 240.877 170.731 241.721 170.372 242.453C170.009 243.18 169.524 243.786 168.908 244.275C168.288 244.76 167.571 245.128 166.747 245.375C165.923 245.623 165.041 245.744 164.1 245.744C163.465 245.744 162.879 245.691 162.331 245.584C161.788 245.477 161.308 245.351 160.891 245.201C160.475 245.056 160.126 244.901 159.844 244.736C159.563 244.571 159.364 244.425 159.239 244.304C159.117 244.178 159.03 243.999 158.977 243.766C158.923 243.534 158.899 243.204 158.899 242.768C158.899 242.472 158.909 242.23 158.928 242.031C158.948 241.832 158.977 241.672 159.02 241.546C159.064 241.425 159.122 241.338 159.19 241.285C159.263 241.231 159.345 241.207 159.442 241.207C159.573 241.207 159.762 241.285 160.004 241.445C160.247 241.6 160.557 241.774 160.935 241.963C161.313 242.152 161.769 242.327 162.297 242.482C162.82 242.642 163.431 242.719 164.124 242.719C164.58 242.719 164.987 242.666 165.346 242.559C165.71 242.448 166.015 242.298 166.267 242.099C166.519 241.9 166.708 241.658 166.844 241.367C166.975 241.076 167.042 240.751 167.042 240.393C167.042 239.976 166.931 239.617 166.703 239.322C166.475 239.021 166.18 238.759 165.811 238.526C165.448 238.294 165.031 238.076 164.565 237.872C164.105 237.669 163.625 237.455 163.131 237.227C162.636 237 162.157 236.743 161.696 236.452C161.231 236.166 160.814 235.822 160.45 235.419C160.082 235.017 159.786 234.542 159.558 233.99C159.33 233.442 159.219 232.783 159.219 232.017C159.219 231.139 159.384 230.364 159.709 229.695C160.033 229.031 160.475 228.479 161.027 228.037C161.585 227.596 162.234 227.267 162.985 227.048C163.737 226.83 164.536 226.724 165.38 226.724C165.811 226.724 166.248 226.758 166.684 226.826C167.12 226.889 167.527 226.981 167.905 227.092C168.283 227.208 168.618 227.334 168.913 227.475C169.204 227.621 169.398 227.737 169.495 227.834C169.587 227.926 169.65 228.008 169.684 228.071C169.718 228.139 169.747 228.226 169.771 228.338C169.796 228.444 169.81 228.58 169.82 228.75C169.83 228.915 169.834 229.118 169.834 229.366C169.834 229.637 169.829 229.87 169.815 230.059C169.8 230.248 169.776 230.403 169.742 230.529C169.708 230.65 169.66 230.742 169.602 230.795C169.539 230.853 169.456 230.883 169.349 230.883C169.248 230.883 169.083 230.815 168.855 230.684C168.628 230.553 168.346 230.408 168.017 230.248C167.682 230.093 167.299 229.952 166.863 229.826C166.427 229.695 165.952 229.632 165.428 229.632C165.021 229.632 164.667 229.68 164.362 229.782C164.061 229.879 163.809 230.02 163.606 230.194C163.402 230.369 163.247 230.577 163.15 230.825C163.048 231.072 163 231.333 163 231.605C163 232.012 163.111 232.366 163.334 232.662C163.557 232.962 163.858 233.228 164.231 233.461C164.604 233.689 165.031 233.907 165.506 234.111C165.976 234.315 166.461 234.532 166.955 234.755C167.449 234.983 167.934 235.24 168.404 235.531C168.88 235.822 169.301 236.166 169.674 236.568C170.043 236.97 170.343 237.441 170.571 237.989C170.799 238.531 170.911 239.171 170.911 239.908ZM190.733 242.647C190.733 242.884 190.728 243.088 190.713 243.252C190.699 243.417 190.674 243.563 190.645 243.679C190.621 243.8 190.582 243.902 190.534 243.989C190.485 244.072 190.413 244.169 190.306 244.275C190.204 244.382 190.001 244.522 189.705 244.692C189.404 244.857 189.041 245.022 188.609 245.177C188.178 245.327 187.689 245.458 187.136 245.56C186.583 245.662 185.982 245.715 185.338 245.715C184.082 245.715 182.948 245.521 181.935 245.133C180.922 244.745 180.059 244.164 179.352 243.393C178.639 242.622 178.096 241.663 177.718 240.504C177.34 239.351 177.151 238.008 177.151 236.476C177.151 234.915 177.359 233.529 177.776 232.318C178.193 231.106 178.775 230.088 179.521 229.264C180.267 228.44 181.164 227.819 182.211 227.393C183.253 226.966 184.407 226.753 185.667 226.753C186.176 226.753 186.666 226.796 187.141 226.884C187.616 226.966 188.052 227.078 188.454 227.218C188.857 227.354 189.215 227.514 189.54 227.693C189.86 227.877 190.088 228.032 190.214 228.159C190.34 228.289 190.427 228.396 190.476 228.479C190.524 228.566 190.563 228.672 190.587 228.803C190.616 228.939 190.641 229.094 190.655 229.273C190.669 229.453 190.674 229.671 190.674 229.938C190.674 230.218 190.664 230.461 190.645 230.659C190.626 230.858 190.592 231.018 190.548 231.139C190.5 231.261 190.442 231.353 190.379 231.406C190.311 231.464 190.233 231.493 190.151 231.493C190.01 231.493 189.831 231.411 189.613 231.246C189.395 231.081 189.113 230.897 188.769 230.693C188.425 230.49 188.013 230.306 187.533 230.141C187.058 229.976 186.491 229.894 185.827 229.894C185.1 229.894 184.451 230.044 183.879 230.34C183.307 230.64 182.822 231.062 182.42 231.615C182.017 232.172 181.712 232.841 181.504 233.626C181.295 234.406 181.193 235.294 181.193 236.278C181.193 237.354 181.305 238.289 181.528 239.079C181.751 239.864 182.066 240.519 182.478 241.028C182.885 241.537 183.384 241.919 183.966 242.167C184.547 242.419 185.202 242.545 185.929 242.545C186.588 242.545 187.16 242.467 187.645 242.312C188.125 242.157 188.537 241.983 188.881 241.798C189.23 241.609 189.511 241.44 189.734 241.289C189.957 241.139 190.127 241.062 190.253 241.062C190.345 241.062 190.422 241.081 190.476 241.12C190.534 241.158 190.582 241.231 190.621 241.348C190.655 241.459 190.684 241.619 190.703 241.823C190.723 242.031 190.733 242.303 190.733 242.647ZM201.442 244.915C201.442 245.007 201.413 245.094 201.35 245.172C201.287 245.245 201.185 245.308 201.045 245.356C200.904 245.4 200.71 245.439 200.478 245.468C200.24 245.497 199.934 245.511 199.566 245.511C199.207 245.511 198.907 245.497 198.665 245.468C198.422 245.439 198.228 245.4 198.088 245.356C197.947 245.308 197.845 245.245 197.782 245.172C197.719 245.094 197.69 245.007 197.69 244.915V227.553C197.69 227.461 197.719 227.373 197.782 227.296C197.845 227.223 197.947 227.16 198.098 227.111C198.243 227.063 198.432 227.029 198.669 227C198.907 226.971 199.207 226.956 199.566 226.956C199.934 226.956 200.24 226.971 200.478 227C200.71 227.029 200.904 227.063 201.045 227.111C201.185 227.16 201.287 227.223 201.35 227.296C201.413 227.373 201.442 227.461 201.442 227.553V244.915ZM220.595 243.955C220.595 244.231 220.585 244.459 220.561 244.648C220.537 244.833 220.503 244.983 220.454 245.094C220.406 245.211 220.348 245.293 220.275 245.346C220.207 245.4 220.125 245.424 220.043 245.424H210.823C210.513 245.424 210.251 245.332 210.038 245.148C209.825 244.964 209.718 244.663 209.718 244.246V228.221C209.718 227.805 209.825 227.504 210.038 227.32C210.251 227.136 210.513 227.044 210.823 227.044H219.999C220.081 227.044 220.159 227.068 220.227 227.117C220.29 227.165 220.348 227.247 220.396 227.364C220.44 227.485 220.479 227.635 220.503 227.819C220.527 228.008 220.537 228.241 220.537 228.527C220.537 228.793 220.527 229.017 220.503 229.206C220.479 229.39 220.445 229.54 220.396 229.651C220.348 229.768 220.29 229.85 220.227 229.904C220.159 229.957 220.081 229.981 219.999 229.981H213.441V234.46H218.966C219.054 234.46 219.131 234.484 219.199 234.537C219.272 234.591 219.33 234.668 219.378 234.78C219.427 234.886 219.461 235.032 219.485 235.221C219.509 235.405 219.519 235.628 219.519 235.89C219.519 236.166 219.509 236.394 219.485 236.573C219.461 236.753 219.427 236.898 219.378 237.005C219.33 237.116 219.272 237.194 219.199 237.237C219.131 237.286 219.054 237.31 218.966 237.31H213.441V242.487H220.043C220.13 242.487 220.207 242.511 220.275 242.564C220.348 242.617 220.406 242.7 220.454 242.816C220.503 242.928 220.537 243.078 220.561 243.262C220.585 243.451 220.595 243.679 220.595 243.955ZM243.33 244.115C243.33 244.333 243.292 244.527 243.219 244.702C243.141 244.872 243.04 245.012 242.909 245.128C242.783 245.24 242.632 245.322 242.458 245.375C242.278 245.429 242.104 245.453 241.925 245.453H240.33C239.995 245.453 239.709 245.419 239.467 245.356C239.23 245.288 239.007 245.167 238.803 244.993C238.595 244.818 238.401 244.581 238.212 244.28C238.023 243.984 237.809 243.597 237.572 243.122L233.011 234.528C232.744 234.014 232.478 233.461 232.201 232.87C231.925 232.279 231.683 231.702 231.465 231.144H231.435C231.474 231.828 231.503 232.506 231.523 233.185C231.542 233.859 231.552 234.562 231.552 235.279V244.901C231.552 244.993 231.527 245.08 231.474 245.158C231.421 245.23 231.329 245.293 231.203 245.346C231.077 245.4 230.902 245.439 230.684 245.468C230.466 245.497 230.185 245.511 229.846 245.511C229.511 245.511 229.235 245.497 229.017 245.468C228.799 245.439 228.629 245.4 228.508 245.346C228.382 245.298 228.295 245.23 228.251 245.158C228.202 245.08 228.178 244.993 228.178 244.901V228.382C228.178 227.935 228.309 227.601 228.571 227.378C228.828 227.155 229.147 227.044 229.53 227.044H231.532C231.891 227.044 232.196 227.073 232.444 227.136C232.691 227.199 232.909 227.3 233.103 227.441C233.297 227.582 233.481 227.78 233.651 228.032C233.82 228.279 233.995 228.595 234.174 228.963L237.746 235.686C237.955 236.093 238.158 236.495 238.362 236.888C238.566 237.281 238.764 237.674 238.949 238.066C239.138 238.459 239.322 238.847 239.501 239.225C239.685 239.607 239.86 239.985 240.029 240.364H240.044C240.015 239.699 239.991 239.006 239.976 238.289C239.962 237.567 239.957 236.878 239.957 236.224V227.596C239.957 227.504 239.986 227.417 240.044 227.339C240.097 227.267 240.194 227.199 240.325 227.141C240.461 227.082 240.635 227.044 240.853 227.02C241.071 226.995 241.353 226.986 241.692 226.986C242.017 226.986 242.288 226.996 242.506 227.02C242.724 227.044 242.889 227.082 243.01 227.141C243.127 227.199 243.214 227.267 243.257 227.339C243.306 227.417 243.33 227.499 243.33 227.596V244.115ZM264.316 242.647C264.316 242.884 264.311 243.088 264.296 243.252C264.282 243.417 264.257 243.563 264.228 243.679C264.204 243.8 264.165 243.902 264.117 243.989C264.069 244.072 263.996 244.169 263.889 244.275C263.787 244.382 263.584 244.522 263.288 244.692C262.987 244.857 262.624 245.022 262.193 245.177C261.761 245.327 261.272 245.458 260.719 245.56C260.166 245.662 259.565 245.715 258.921 245.715C257.665 245.715 256.531 245.521 255.518 245.133C254.505 244.745 253.642 244.164 252.935 243.393C252.222 242.622 251.679 241.663 251.301 240.504C250.923 239.351 250.734 238.008 250.734 236.476C250.734 234.915 250.943 233.529 251.359 232.318C251.776 231.106 252.358 230.088 253.104 229.264C253.851 228.44 254.747 227.819 255.794 227.393C256.837 226.966 257.99 226.753 259.25 226.753C259.759 226.753 260.249 226.796 260.724 226.884C261.199 226.966 261.635 227.078 262.038 227.218C262.44 227.354 262.798 227.514 263.123 227.693C263.443 227.877 263.671 228.032 263.797 228.159C263.923 228.289 264.01 228.396 264.059 228.479C264.107 228.566 264.146 228.672 264.17 228.803C264.199 228.939 264.224 229.094 264.238 229.273C264.253 229.453 264.257 229.671 264.257 229.938C264.257 230.218 264.247 230.461 264.228 230.659C264.209 230.858 264.175 231.018 264.132 231.139C264.083 231.261 264.025 231.353 263.962 231.406C263.894 231.464 263.816 231.493 263.734 231.493C263.594 231.493 263.414 231.411 263.196 231.246C262.978 231.081 262.697 230.897 262.353 230.693C262.008 230.49 261.597 230.306 261.117 230.141C260.642 229.976 260.074 229.894 259.41 229.894C258.683 229.894 258.034 230.044 257.462 230.34C256.89 230.64 256.405 231.062 256.003 231.615C255.6 232.172 255.295 232.841 255.087 233.626C254.878 234.406 254.776 235.294 254.776 236.278C254.776 237.354 254.888 238.289 255.111 239.079C255.334 239.864 255.649 240.519 256.061 241.028C256.468 241.537 256.967 241.919 257.549 242.167C258.131 242.419 258.785 242.545 259.512 242.545C260.171 242.545 260.743 242.467 261.228 242.312C261.708 242.157 262.12 241.983 262.464 241.798C262.813 241.609 263.094 241.44 263.317 241.289C263.54 241.139 263.71 241.062 263.836 241.062C263.928 241.062 264.005 241.081 264.059 241.12C264.117 241.158 264.165 241.231 264.204 241.348C264.238 241.459 264.267 241.619 264.287 241.823C264.306 242.031 264.316 242.303 264.316 242.647ZM282.151 243.955C282.151 244.231 282.141 244.459 282.117 244.648C282.092 244.833 282.058 244.983 282.01 245.094C281.961 245.211 281.903 245.293 281.831 245.346C281.763 245.4 281.68 245.424 281.598 245.424H272.379C272.069 245.424 271.807 245.332 271.593 245.148C271.38 244.964 271.273 244.663 271.273 244.246V228.221C271.273 227.805 271.38 227.504 271.593 227.32C271.807 227.136 272.069 227.044 272.379 227.044H281.554C281.637 227.044 281.714 227.068 281.782 227.117C281.845 227.165 281.903 227.247 281.952 227.364C281.995 227.485 282.034 227.635 282.058 227.819C282.083 228.008 282.092 228.241 282.092 228.527C282.092 228.793 282.082 229.017 282.058 229.206C282.034 229.39 282 229.54 281.952 229.651C281.903 229.768 281.845 229.85 281.782 229.904C281.714 229.957 281.637 229.981 281.554 229.981H274.996V234.46H280.522C280.609 234.46 280.687 234.484 280.754 234.537C280.827 234.591 280.885 234.668 280.934 234.78C280.982 234.886 281.016 235.032 281.04 235.221C281.065 235.405 281.075 235.628 281.075 235.89C281.075 236.166 281.065 236.394 281.04 236.573C281.016 236.753 280.982 236.898 280.934 237.005C280.885 237.116 280.827 237.194 280.754 237.237C280.687 237.286 280.609 237.31 280.522 237.31H274.996V242.487H281.598C281.685 242.487 281.763 242.511 281.831 242.564C281.903 242.617 281.961 242.7 282.01 242.816C282.058 242.928 282.092 243.078 282.117 243.262C282.141 243.451 282.151 243.679 282.151 243.955ZM300.354 239.908C300.354 240.877 300.174 241.721 299.815 242.453C299.452 243.18 298.967 243.786 298.352 244.275C297.731 244.76 297.014 245.128 296.19 245.375C295.366 245.623 294.484 245.744 293.543 245.744C292.908 245.744 292.322 245.691 291.774 245.584C291.231 245.477 290.751 245.351 290.335 245.201C289.918 245.056 289.569 244.901 289.288 244.736C289.006 244.571 288.808 244.425 288.682 244.304C288.561 244.178 288.473 243.999 288.42 243.766C288.367 243.534 288.343 243.204 288.343 242.768C288.343 242.472 288.353 242.23 288.371 242.031C288.391 241.832 288.42 241.672 288.464 241.546C288.507 241.425 288.565 241.338 288.633 241.285C288.706 241.231 288.788 241.207 288.885 241.207C289.016 241.207 289.205 241.285 289.447 241.445C289.69 241.6 290 241.774 290.378 241.963C290.756 242.152 291.212 242.327 291.74 242.482C292.264 242.642 292.875 242.719 293.568 242.719C294.023 242.719 294.431 242.666 294.789 242.559C295.153 242.448 295.458 242.298 295.71 242.099C295.962 241.9 296.151 241.658 296.287 241.367C296.418 241.076 296.486 240.751 296.486 240.393C296.486 239.976 296.374 239.617 296.146 239.322C295.918 239.021 295.623 238.759 295.255 238.526C294.891 238.294 294.474 238.076 294.009 237.872C293.548 237.669 293.068 237.455 292.574 237.227C292.079 237 291.6 236.743 291.139 236.452C290.674 236.166 290.257 235.822 289.893 235.419C289.525 235.017 289.229 234.542 289.002 233.99C288.774 233.442 288.662 232.783 288.662 232.017C288.662 231.139 288.827 230.364 289.152 229.695C289.477 229.031 289.918 228.479 290.47 228.037C291.028 227.596 291.677 227.267 292.429 227.048C293.18 226.83 293.98 226.724 294.823 226.724C295.255 226.724 295.691 226.758 296.127 226.826C296.563 226.889 296.97 226.981 297.348 227.092C297.726 227.208 298.061 227.334 298.356 227.475C298.647 227.621 298.841 227.737 298.938 227.834C299.03 227.926 299.093 228.008 299.127 228.071C299.161 228.139 299.19 228.226 299.215 228.338C299.239 228.444 299.253 228.58 299.263 228.75C299.273 228.915 299.277 229.118 299.277 229.366C299.277 229.637 299.272 229.87 299.258 230.059C299.244 230.248 299.219 230.403 299.185 230.529C299.152 230.65 299.103 230.742 299.045 230.795C298.982 230.853 298.9 230.883 298.793 230.883C298.691 230.883 298.526 230.815 298.298 230.684C298.071 230.553 297.79 230.408 297.46 230.248C297.125 230.093 296.742 229.952 296.306 229.826C295.87 229.695 295.395 229.632 294.872 229.632C294.464 229.632 294.11 229.68 293.805 229.782C293.505 229.879 293.253 230.02 293.049 230.194C292.845 230.369 292.69 230.577 292.593 230.825C292.492 231.072 292.443 231.333 292.443 231.605C292.443 232.012 292.555 232.366 292.778 232.662C293 232.962 293.301 233.228 293.674 233.461C294.048 233.689 294.474 233.907 294.949 234.111C295.419 234.315 295.904 234.532 296.398 234.755C296.893 234.983 297.377 235.24 297.848 235.531C298.323 235.822 298.744 236.166 299.118 236.568C299.486 236.97 299.787 237.441 300.014 237.989C300.242 238.531 300.354 239.171 300.354 239.908Z" fill="#ffffff"/>
</svg>